# xmcd CD database file
#
# Track frame offsets:
#	150
#	22979
#	46507
#	69107
#	88957
#	122082
#	149839
#	167349
#	196042
#	225559
#	255141
#	279735
#	305030
#
# Disc length: 4229 seconds
#
# Revision: 1
# Processed by: cddbd v1.5.2PL0 Copyright (c) Steve Scherf et al.
# Submitted via: CDex 1.51
#
DISCID=a510830d
DTITLE=Rita Falk - Sauerkraut-Koma
DYEAR=2013
DGENRE=Hörbuch
TTITLE0=Sauerkraut-Koma - 14
TTITLE1=Sauerkraut-Koma - 15
TTITLE2=Sauerkraut-Koma - 16
TTITLE3=Sauerkraut-Koma - 17
TTITLE4=Sauerkraut-Koma - 18
TTITLE5=Sauerkraut-Koma - 19
TTITLE6=Sauerkraut-Koma - 20
TTITLE7=Sauerkraut-Koma - 21
TTITLE8=Sauerkraut-Koma - 22
TTITLE9=Sauerkraut-Koma - 23
TTITLE10=Sauerkraut-Koma - 24
TTITLE11=Sauerkraut-Koma - 25
TTITLE12=Sauerkraut-Koma - 26
EXTD=YEAR: 2013
EXTT0=
EXTT1=
EXTT2=
EXTT3=
EXTT4=
EXTT5=
EXTT6=
EXTT7=
EXTT8=
EXTT9=
EXTT10=
EXTT11=
EXTT12=
PLAYORDER=
